<svg id="Layer_1" data-name="Layer 1" xmlns="http://www.w3.org/2000/svg" xmlns:xlink="http://www.w3.org/1999/xlink" viewBox="0 0 280 81"><defs><style>.cls-1{fill:none;}.cls-2{fill:#00bcd4;}.cls-3{fill:#1a1a1a;}.cls-4{fill:url(#New_Pattern_Swatch_1);}.cls-5{fill:url(#linear-gradient);}.cls-6{fill:url(#linear-gradient-2);}</style><pattern id="New_Pattern_Swatch_1" data-name="New Pattern Swatch 1" width="100" height="100" patternUnits="userSpaceOnUse" viewBox="0 0 100 100"><rect class="cls-1" width="100" height="100"/><rect class="cls-2" width="100" height="100"/></pattern><linearGradient id="linear-gradient" x1="99.06" y1="47.5" x2="88.25" y2="34.62" gradientUnits="userSpaceOnUse"><stop offset="0" stop-color="#00bcd4"/><stop offset="0.23" stop-color="#00bad1"/><stop offset="0.41" stop-color="#00b2c7"/><stop offset="0.58" stop-color="#00a4b6"/><stop offset="0.74" stop-color="#00929e"/><stop offset="0.9" stop-color="#007a80"/><stop offset="1" stop-color="#066"/></linearGradient><linearGradient id="linear-gradient-2" x1="6.56" y1="31.85" x2="18.45" y2="43.74" gradientUnits="userSpaceOnUse"><stop offset="0" stop-color="#00bcd4"/><stop offset="0.44" stop-color="#00bbd2"/><stop offset="0.6" stop-color="#00b5cb"/><stop offset="0.71" stop-color="#00acc0"/><stop offset="0.8" stop-color="#009faf"/><stop offset="0.88" stop-color="#008e99"/><stop offset="0.95" stop-color="#00797e"/><stop offset="1" stop-color="#066"/></linearGradient></defs><title>Artboard 1</title><path class="cls-3" d="M120.48,20.44h1.6a.76.76,0,0,1,.5.16.8.8,0,0,1,.26.36l5.49,17.17a9.36,9.36,0,0,1,.24,1l.18.92c.07-.31.15-.61.24-.92s.19-.63.31-1l5.84-17.32a.6.6,0,0,1,.61-.48h.85a.62.62,0,0,1,.63.48L143,38.14a17.91,17.91,0,0,1,.52,1.9q.09-.46.19-.93a7.79,7.79,0,0,1,.27-1L149.49,21a.71.71,0,0,1,.74-.52h1.53L144.48,42.2h-1.53q-.35,0-.5-.46l-6-17.67q-.11-.33-.2-.66t-.15-.66q-.07.33-.14.66t-.19.66l-6,17.67a.53.53,0,0,1-.52.46h-1.47Z"/><path class="cls-3" d="M164,20.09a9,9,0,0,1,3.4.63,7.65,7.65,0,0,1,2.71,1.85,8.52,8.52,0,0,1,1.79,3,11.86,11.86,0,0,1,.65,4.07,1.09,1.09,0,0,1-.14.66.54.54,0,0,1-.45.18H156.24v.42a14.74,14.74,0,0,0,.57,4.31,8.81,8.81,0,0,0,1.62,3.12A6.66,6.66,0,0,0,161,40.19a8.38,8.38,0,0,0,3.32.63,9.93,9.93,0,0,0,2.84-.36,10.59,10.59,0,0,0,2-.81,11.16,11.16,0,0,0,1.3-.81,1.48,1.48,0,0,1,.7-.36.5.5,0,0,1,.44.22l.57.7a5.93,5.93,0,0,1-1.39,1.22,9.86,9.86,0,0,1-1.92,1,13.92,13.92,0,0,1-2.27.65,12.54,12.54,0,0,1-2.44.24,10.35,10.35,0,0,1-4.07-.78,8.65,8.65,0,0,1-3.15-2.26,10.36,10.36,0,0,1-2-3.64,15.57,15.57,0,0,1-.72-4.93,13.45,13.45,0,0,1,.67-4.32,9.89,9.89,0,0,1,1.92-3.41,8.78,8.78,0,0,1,3.08-2.24A10.14,10.14,0,0,1,164,20.09Zm0,1.55a8.17,8.17,0,0,0-3,.52,6.59,6.59,0,0,0-2.3,1.51A7.69,7.69,0,0,0,157.13,26a10.75,10.75,0,0,0-.8,3.08h14.33a9.57,9.57,0,0,0-.48-3.14,6.72,6.72,0,0,0-1.35-2.35,5.86,5.86,0,0,0-2.1-1.48A6.92,6.92,0,0,0,164,21.65Z"/><path class="cls-3" d="M178.36,42.2V10.38h2.08l0,13.87a11.35,11.35,0,0,1,3.35-3,8.31,8.31,0,0,1,4.29-1.12,7.59,7.59,0,0,1,6.24,2.77q2.24,2.77,2.24,8.32a15.33,15.33,0,0,1-.62,4.45,10.57,10.57,0,0,1-1.84,3.59,8.73,8.73,0,0,1-3,2.39,9,9,0,0,1-4.06.88,7.59,7.59,0,0,1-6.75-3.5l-.13,2.67a.54.54,0,0,1-.58.55Zm9.13-20.45a7.14,7.14,0,0,0-3.92,1.12A11.11,11.11,0,0,0,180.43,26V37.46a7.39,7.39,0,0,0,2.76,2.64,8.46,8.46,0,0,0,6.86.05,6.65,6.65,0,0,0,2.42-2,8.93,8.93,0,0,0,1.47-3.06,14.7,14.7,0,0,0,.49-3.93q0-4.86-1.8-7.14A6.16,6.16,0,0,0,187.49,21.75Z"/><path class="cls-3" d="M202,42.2V20.44h1.14a.59.59,0,0,1,.66.55l.2,3.15a13.57,13.57,0,0,1,1.36-1.64,9,9,0,0,1,1.54-1.28,7.12,7.12,0,0,1,1.75-.83,6.41,6.41,0,0,1,2-.3,5.21,5.21,0,0,1,3.81,1.39,7.27,7.27,0,0,1,1.93,3.86,7.57,7.57,0,0,1,1.1-2.34,6.89,6.89,0,0,1,1.63-1.63,6.75,6.75,0,0,1,2-1,7.85,7.85,0,0,1,2.22-.32,7.5,7.5,0,0,1,2.9.54,5.81,5.81,0,0,1,2.2,1.59,7.2,7.2,0,0,1,1.39,2.58,11.68,11.68,0,0,1,.48,3.5V42.2h-2.08V28.29a7.48,7.48,0,0,0-1.38-4.87,4.81,4.81,0,0,0-3.94-1.67,5.82,5.82,0,0,0-2.18.42,5.28,5.28,0,0,0-1.84,1.24,5.93,5.93,0,0,0-1.27,2,7.93,7.93,0,0,0-.47,2.84V42.2H215V28.29a8,8,0,0,0-1.27-4.86,4.34,4.34,0,0,0-3.7-1.68,5.59,5.59,0,0,0-3.28,1.06,10.06,10.06,0,0,0-2.69,2.94V42.2Z"/><path class="cls-3" d="M245.11,20.09a10.47,10.47,0,0,1,4.19.8,8.55,8.55,0,0,1,3.12,2.26,10.06,10.06,0,0,1,1.94,3.53,15,15,0,0,1,.67,4.63,14.92,14.92,0,0,1-.67,4.62,10.06,10.06,0,0,1-1.94,3.52,8.44,8.44,0,0,1-3.12,2.25,11.54,11.54,0,0,1-8.38,0,8.54,8.54,0,0,1-3.13-2.25,9.94,9.94,0,0,1-1.95-3.52,14.89,14.89,0,0,1-.67-4.62,15,15,0,0,1,.67-4.63,9.94,9.94,0,0,1,1.95-3.53,8.65,8.65,0,0,1,3.13-2.26A10.46,10.46,0,0,1,245.11,20.09Zm0,20.76a8.08,8.08,0,0,0,3.4-.67,6.43,6.43,0,0,0,2.43-1.91,8.44,8.44,0,0,0,1.45-3,15,15,0,0,0,.48-3.95,15,15,0,0,0-.48-3.94,8.54,8.54,0,0,0-1.45-3,6.5,6.5,0,0,0-2.43-1.94,8.87,8.87,0,0,0-6.8,0,6.49,6.49,0,0,0-2.43,1.94,8.67,8.67,0,0,0-1.47,3,14.69,14.69,0,0,0-.49,3.94,14.67,14.67,0,0,0,.49,3.95,8.57,8.57,0,0,0,1.47,3,6.42,6.42,0,0,0,2.43,1.91A8.08,8.08,0,0,0,245.11,40.85Z"/><path class="cls-3" d="M260.7,42.2V10.38h2.08l0,13.87a11.37,11.37,0,0,1,3.35-3,8.31,8.31,0,0,1,4.29-1.12,7.59,7.59,0,0,1,6.25,2.77q2.24,2.77,2.24,8.32a15.33,15.33,0,0,1-.62,4.45,10.56,10.56,0,0,1-1.84,3.59,8.73,8.73,0,0,1-3,2.39,9,9,0,0,1-4.06.88,7.59,7.59,0,0,1-6.75-3.5l-.13,2.67a.54.54,0,0,1-.58.55Zm9.13-20.45a7.14,7.14,0,0,0-3.92,1.12A11.1,11.1,0,0,0,262.78,26V37.46a7.4,7.4,0,0,0,2.76,2.64,8.45,8.45,0,0,0,6.86.05,6.65,6.65,0,0,0,2.42-2,8.92,8.92,0,0,0,1.47-3.06,14.69,14.69,0,0,0,.49-3.93q0-4.86-1.8-7.14A6.16,6.16,0,0,0,269.84,21.75Z"/><path class="cls-4" d="M125.86,68.31a2.31,2.31,0,0,1-1.75-.63,2.53,2.53,0,0,1-.61-1.83V60h-1.16a.37.37,0,0,1-.26-.09.35.35,0,0,1-.1-.28v-.67l1.57-.2.39-3a.36.36,0,0,1,.12-.23.39.39,0,0,1,.27-.09h.85v3.31h2.75V60h-2.75v5.76a1.22,1.22,0,0,0,.29.9,1,1,0,0,0,.76.29,1.33,1.33,0,0,0,.46-.07,1.88,1.88,0,0,0,.34-.16l.24-.16a.32.32,0,0,1,.18-.07.29.29,0,0,1,.24.16l.49.81a3.15,3.15,0,0,1-1.05.64A3.58,3.58,0,0,1,125.86,68.31Z"/><path class="cls-4" d="M138.56,58.41a4.29,4.29,0,0,1,1.59.29,3.58,3.58,0,0,1,1.26.83,3.81,3.81,0,0,1,.83,1.35,5.2,5.2,0,0,1,.3,1.83,1.1,1.1,0,0,1-.08.53.35.35,0,0,1-.32.13h-6.39a5.32,5.32,0,0,0,.25,1.58,3.24,3.24,0,0,0,.63,1.12,2.51,2.51,0,0,0,.95.67,3.25,3.25,0,0,0,1.23.22,3.63,3.63,0,0,0,1.09-.15,5.33,5.33,0,0,0,.79-.32,6,6,0,0,0,.55-.32.74.74,0,0,1,.38-.15.37.37,0,0,1,.32.16l.47.62a3.18,3.18,0,0,1-.75.66,4.67,4.67,0,0,1-.93.46,6,6,0,0,1-1,.27,6.34,6.34,0,0,1-1.05.09,4.88,4.88,0,0,1-1.83-.34,4,4,0,0,1-1.45-1,4.52,4.52,0,0,1-1-1.61,6.53,6.53,0,0,1-.34-2.2,5.6,5.6,0,0,1,.31-1.88,4.42,4.42,0,0,1,.89-1.51,4.08,4.08,0,0,1,1.41-1A4.64,4.64,0,0,1,138.56,58.41Zm0,1.24a2.59,2.59,0,0,0-1.92.71,3.32,3.32,0,0,0-.87,2H141a3.42,3.42,0,0,0-.16-1.08,2.41,2.41,0,0,0-.47-.84,2.13,2.13,0,0,0-.76-.55A2.59,2.59,0,0,0,138.6,59.65Z"/><path class="cls-4" d="M156,60.26a.72.72,0,0,1-.15.16.36.36,0,0,1-.22.06.54.54,0,0,1-.31-.12,4.39,4.39,0,0,0-.42-.26,3.54,3.54,0,0,0-.62-.26,3,3,0,0,0-.9-.12,2.92,2.92,0,0,0-1.24.25,2.41,2.41,0,0,0-.91.73,3.28,3.28,0,0,0-.55,1.15,5.7,5.7,0,0,0-.18,1.51,5.5,5.5,0,0,0,.2,1.55,3.37,3.37,0,0,0,.56,1.14,2.39,2.39,0,0,0,.88.7,2.71,2.71,0,0,0,1.16.24,3,3,0,0,0,1-.15,3.09,3.09,0,0,0,.66-.33,4.69,4.69,0,0,0,.44-.33.53.53,0,0,1,.34-.15.36.36,0,0,1,.32.16l.47.62A3.65,3.65,0,0,1,155,67.94a5.54,5.54,0,0,1-2,.36,4.19,4.19,0,0,1-1.67-.33A3.81,3.81,0,0,1,150,67a4.57,4.57,0,0,1-.9-1.55,6.23,6.23,0,0,1-.33-2.09,6.31,6.31,0,0,1,.3-2,4.48,4.48,0,0,1,.87-1.57,3.94,3.94,0,0,1,1.42-1,4.76,4.76,0,0,1,1.93-.37,4.57,4.57,0,0,1,1.78.33,4.27,4.27,0,0,1,1.37.92Z"/><path class="cls-4" d="M163,68.16v-14h1.69v5.65a5.18,5.18,0,0,1,1.36-1,3.65,3.65,0,0,1,1.73-.39,3.47,3.47,0,0,1,1.39.26,2.69,2.69,0,0,1,1,.74,3.26,3.26,0,0,1,.61,1.15A5,5,0,0,1,171,62v6.11h-1.69V62a2.58,2.58,0,0,0-.5-1.69,1.86,1.86,0,0,0-1.52-.6,2.83,2.83,0,0,0-1.4.36,4.6,4.6,0,0,0-1.2,1v7.07Z"/><path class="cls-4" d="M178.3,68.16v-9.6h1a.43.43,0,0,1,.45.35l.13,1a5.39,5.39,0,0,1,1.4-1.12,3.64,3.64,0,0,1,1.79-.43,3.47,3.47,0,0,1,1.39.26,2.69,2.69,0,0,1,1,.74,3.26,3.26,0,0,1,.61,1.15,5,5,0,0,1,.21,1.49v6.11H184.6V62a2.58,2.58,0,0,0-.5-1.69,1.86,1.86,0,0,0-1.52-.6,2.83,2.83,0,0,0-1.4.36,4.6,4.6,0,0,0-1.2,1v7.07Z"/><path class="cls-4" d="M197.47,58.41a4.94,4.94,0,0,1,1.9.35,4,4,0,0,1,1.44,1,4.4,4.4,0,0,1,.91,1.56,6.74,6.74,0,0,1,0,4.09,4.41,4.41,0,0,1-.91,1.55,4,4,0,0,1-1.44,1,5.39,5.39,0,0,1-3.8,0,4,4,0,0,1-1.45-1,4.42,4.42,0,0,1-.92-1.55,6.65,6.65,0,0,1,0-4.09,4.41,4.41,0,0,1,.92-1.56,4.06,4.06,0,0,1,1.45-1A4.94,4.94,0,0,1,197.47,58.41Zm0,8.57a2.46,2.46,0,0,0,2.12-1,5.42,5.42,0,0,0,0-5.33,2.46,2.46,0,0,0-2.12-1,3,3,0,0,0-1.25.25,2.34,2.34,0,0,0-.89.71,3.16,3.16,0,0,0-.53,1.14,6.75,6.75,0,0,0,0,3.06,3.11,3.11,0,0,0,.53,1.13,2.36,2.36,0,0,0,.89.71A2.94,2.94,0,0,0,197.47,67Z"/><path class="cls-4" d="M210.74,54.2v14H209v-14Z"/><path class="cls-4" d="M222.34,58.41a4.94,4.94,0,0,1,1.9.35,4,4,0,0,1,1.44,1,4.4,4.4,0,0,1,.91,1.56,6.75,6.75,0,0,1,0,4.09,4.41,4.41,0,0,1-.91,1.55,4,4,0,0,1-1.44,1,5.4,5.4,0,0,1-3.8,0A4,4,0,0,1,219,67a4.44,4.44,0,0,1-.92-1.55,6.65,6.65,0,0,1,0-4.09,4.43,4.43,0,0,1,.92-1.56,4.06,4.06,0,0,1,1.45-1A4.94,4.94,0,0,1,222.34,58.41Zm0,8.57a2.46,2.46,0,0,0,2.12-1,5.42,5.42,0,0,0,0-5.33,2.46,2.46,0,0,0-2.12-1,3,3,0,0,0-1.25.25,2.34,2.34,0,0,0-.89.71,3.16,3.16,0,0,0-.53,1.14,6.77,6.77,0,0,0,0,3.06A3.1,3.1,0,0,0,220.2,66a2.35,2.35,0,0,0,.89.71A2.93,2.93,0,0,0,222.34,67Z"/><path class="cls-4" d="M237,58.4a4.76,4.76,0,0,1,1.17.14,3.66,3.66,0,0,1,1,.4h2.61v.63c0,.21-.13.34-.4.4l-1.09.15a2.92,2.92,0,0,1,.32,1.37,3,3,0,0,1-.27,1.28,2.88,2.88,0,0,1-.75,1,3.35,3.35,0,0,1-1.14.63,4.57,4.57,0,0,1-1.45.22,4.86,4.86,0,0,1-1.27-.16,1.63,1.63,0,0,0-.46.42.78.78,0,0,0-.16.44.6.6,0,0,0,.28.53,1.91,1.91,0,0,0,.73.26,6.18,6.18,0,0,0,1,.08h1.18a6.57,6.57,0,0,1,1.18.11,3.57,3.57,0,0,1,1,.35,1.93,1.93,0,0,1,.73.66,2,2,0,0,1,.27,1.09,2.57,2.57,0,0,1-.31,1.21,3.27,3.27,0,0,1-.89,1,4.55,4.55,0,0,1-1.41.73,6.06,6.06,0,0,1-1.89.27,7.29,7.29,0,0,1-1.84-.21,4.34,4.34,0,0,1-1.31-.56,2.44,2.44,0,0,1-.78-.81,1.93,1.93,0,0,1-.26-1,1.74,1.74,0,0,1,.45-1.21,3.1,3.1,0,0,1,1.24-.79,1.69,1.69,0,0,1-.65-.51,1.36,1.36,0,0,1-.24-.85,1.33,1.33,0,0,1,.08-.43,1.68,1.68,0,0,1,.23-.44,2.46,2.46,0,0,1,.92-.77A3,3,0,0,1,233.72,63a2.89,2.89,0,0,1-.4-1.54,3,3,0,0,1,.27-1.27,2.83,2.83,0,0,1,.75-1,3.43,3.43,0,0,1,1.15-.62A4.69,4.69,0,0,1,237,58.4Zm3,10.25a.85.85,0,0,0-.2-.59,1.28,1.28,0,0,0-.54-.34,3.77,3.77,0,0,0-.79-.18,7.2,7.2,0,0,0-.94-.06h-1a3.63,3.63,0,0,1-1-.13,2.76,2.76,0,0,0-.88.63,1.27,1.27,0,0,0-.34.88,1.16,1.16,0,0,0,.17.6,1.42,1.42,0,0,0,.51.48,3,3,0,0,0,.86.32,5.49,5.49,0,0,0,1.22.12,5.4,5.4,0,0,0,1.22-.13,3.05,3.05,0,0,0,.92-.36,1.76,1.76,0,0,0,.57-.55A1.31,1.31,0,0,0,240,68.65Zm-3-5.18a2.65,2.65,0,0,0,.9-.14,1.83,1.83,0,0,0,.66-.4,1.64,1.64,0,0,0,.4-.61,2.24,2.24,0,0,0,.13-.78,1.87,1.87,0,0,0-.54-1.4,2.58,2.58,0,0,0-3.11,0,1.87,1.87,0,0,0-.54,1.4,2.15,2.15,0,0,0,.14.78,1.68,1.68,0,0,0,.4.61,1.84,1.84,0,0,0,.65.4A2.59,2.59,0,0,0,237,63.47Z"/><path class="cls-4" d="M250.41,55.54a1.08,1.08,0,0,1-.1.46,1.33,1.33,0,0,1-.27.38,1.24,1.24,0,0,1-.38.26,1.15,1.15,0,0,1-.46.09,1.11,1.11,0,0,1-.46-.09,1.25,1.25,0,0,1-.38-.26,1.23,1.23,0,0,1-.26-.38,1.12,1.12,0,0,1-.09-.46,1.18,1.18,0,0,1,.09-.47,1.19,1.19,0,0,1,.26-.39,1.25,1.25,0,0,1,.38-.26,1.11,1.11,0,0,1,.46-.09,1.15,1.15,0,0,1,.46.09,1.24,1.24,0,0,1,.38.26,1.29,1.29,0,0,1,.27.39A1.14,1.14,0,0,1,250.41,55.54Zm-.38,3v9.6h-1.69v-9.6Z"/><path class="cls-4" d="M261.55,58.41a4.29,4.29,0,0,1,1.59.29,3.57,3.57,0,0,1,1.26.83,3.79,3.79,0,0,1,.83,1.35,5.2,5.2,0,0,1,.3,1.83,1.1,1.1,0,0,1-.08.53.35.35,0,0,1-.32.13h-6.39a5.28,5.28,0,0,0,.25,1.58,3.24,3.24,0,0,0,.63,1.12,2.51,2.51,0,0,0,.95.67,3.26,3.26,0,0,0,1.23.22,3.63,3.63,0,0,0,1.09-.15,5.38,5.38,0,0,0,.79-.32,6,6,0,0,0,.55-.32.74.74,0,0,1,.38-.15.37.37,0,0,1,.32.16l.47.62a3.16,3.16,0,0,1-.75.66,4.64,4.64,0,0,1-.93.46,5.94,5.94,0,0,1-1,.27,6.32,6.32,0,0,1-1.05.09,4.88,4.88,0,0,1-1.83-.34,4,4,0,0,1-1.45-1,4.53,4.53,0,0,1-1-1.61,6.53,6.53,0,0,1-.34-2.2,5.57,5.57,0,0,1,.31-1.88,4.4,4.4,0,0,1,.89-1.51,4.08,4.08,0,0,1,1.41-1A4.64,4.64,0,0,1,261.55,58.41Zm0,1.24a2.59,2.59,0,0,0-1.92.71,3.32,3.32,0,0,0-.87,2H264a3.42,3.42,0,0,0-.16-1.08,2.4,2.4,0,0,0-.47-.84,2.13,2.13,0,0,0-.76-.55A2.59,2.59,0,0,0,261.58,59.65Z"/><path class="cls-4" d="M277.92,60.14a.37.37,0,0,1-.35.21.66.66,0,0,1-.32-.1L276.8,60a4.14,4.14,0,0,0-.62-.24,2.94,2.94,0,0,0-.85-.11,2.5,2.5,0,0,0-.77.11,1.85,1.85,0,0,0-.58.3,1.32,1.32,0,0,0-.37.44,1.18,1.18,0,0,0-.13.54.91.91,0,0,0,.21.62,1.84,1.84,0,0,0,.56.43,4.83,4.83,0,0,0,.8.32l.92.29q.47.16.91.35a3.36,3.36,0,0,1,.8.47,2.18,2.18,0,0,1,.56.7,2.13,2.13,0,0,1,.21,1,3.15,3.15,0,0,1-.24,1.23,2.7,2.7,0,0,1-.7,1,3.41,3.41,0,0,1-1.14.65,4.7,4.7,0,0,1-1.55.24A4.83,4.83,0,0,1,273,68a4.6,4.6,0,0,1-1.38-.84l.4-.64a.58.58,0,0,1,.18-.19.51.51,0,0,1,.27-.07.64.64,0,0,1,.36.13l.46.29a3.48,3.48,0,0,0,.65.29,3,3,0,0,0,1,.13,2.65,2.65,0,0,0,.86-.13,1.81,1.81,0,0,0,.62-.35,1.38,1.38,0,0,0,.36-.5,1.56,1.56,0,0,0,.12-.61,1,1,0,0,0-.21-.66,1.81,1.81,0,0,0-.56-.45,4.65,4.65,0,0,0-.8-.32l-.92-.29q-.47-.15-.92-.35a3.18,3.18,0,0,1-.8-.49,2.21,2.21,0,0,1-.56-.72,2.35,2.35,0,0,1-.21-1,2.55,2.55,0,0,1,.23-1.06,2.58,2.58,0,0,1,.66-.89,3.26,3.26,0,0,1,1.07-.61,4.29,4.29,0,0,1,1.45-.23,4.58,4.58,0,0,1,1.7.3,4,4,0,0,1,1.3.82Z"/><path class="cls-5" d="M104.5,26.69V74.44a1.51,1.51,0,0,1-.93,1.39A1.49,1.49,0,0,1,103,76a1.5,1.5,0,0,1-1.06-.44L88.13,61.76a1.5,1.5,0,0,1-.44-1.07l0-16.7v-.52Z"/><path class="cls-4" d="M104.5,6.56V26.69L87.73,43.47v0l-.27.27L86.4,44.79l-9.79,9.74a1.52,1.52,0,0,1-1.06.45h0a1.47,1.47,0,0,1-.93-.33l-2.56-2.56-7.26-7.32L47.1,27.07A1.51,1.51,0,0,1,46.66,26V6.56a1.51,1.51,0,0,1,2.55-1.08l0,0L72.42,28.68l3.19,3.19L102.24,5.26A1.52,1.52,0,0,1,103,5a1.56,1.56,0,0,1,.58.12A1.51,1.51,0,0,1,104.5,6.56Z"/><path class="cls-4" d="M61.14,55V74.44a1.51,1.51,0,0,1-.93,1.39,1.47,1.47,0,0,1-.58.12,1.5,1.5,0,0,1-1-.42h0L35.38,52.32l-3.19-3.19L5.56,75.74a1.48,1.48,0,0,1-.76.21,1.46,1.46,0,0,1-.58-.12,1.5,1.5,0,0,1-.93-1.39V54.31L20.08,37.53v0l.27-.27,1.06-1.07,9.79-9.75A1.5,1.5,0,0,1,32.25,26h0a1.49,1.49,0,0,1,.93.33l2.56,2.56L43,36.24l1,1L60.7,53.93A1.52,1.52,0,0,1,61.14,55Z"/><path class="cls-6" d="M20.12,20.31l0,16.71v.51L3.3,54.31V6.56a1.51,1.51,0,0,1,.93-1.39A1.56,1.56,0,0,1,4.81,5a1.52,1.52,0,0,1,1.06.44l13.8,13.76A1.51,1.51,0,0,1,20.12,20.31Z"/></svg>